<svg xmlns="http://www.w3.org/2000/svg" viewBox="0 0 64 64" width="512" height="512"><path d="M34 58h9v-2h-8V44h-2v13a1 1 0 001 1zm12 0h9v-2h-8v-4h5v-2h-5v-4h8v-2h-9a1 1 0 00-1 1v12a1 1 0 001 1z"/><path d="M61 35h-3V23h1a1 1 0 001-1v-5a1 1 0 00-1-1h-2v-3a1 1 0 00-1.16-.99l-4.88.82A.978.978 0 0050 12h-4a.978.978 0 00-.96.83l-4.88-.82A1 1 0 0039 13v3h-2a1 1 0 00-1 1v5a1 1 0 001 1h1v2h-8.58L29 16.95a1.007 1.007 0 00-1-.95h-2v-.5a5.5 5.5 0 00-11 0v.5h-2a1.007 1.007 0 00-1 .95L11.79 21H4a1 1 0 00-1 1v13a1 1 0 00-1 1v5a1 1 0 001 1h1v19a1 1 0 001 1h54a1 1 0 001-1V42h1a1 1 0 001-1v-5a1 1 0 00-1-1zM51 14.85l4-.67V16h-4zM51 18h7v3h-7zm0 5h5v12h-5zm-4-9h2v2h-2zm0 4h2v3h-2zm0 5h2v12h-2zm-6-8.82l4 .67V16h-4zM38 18h7v3h-7zm7 5v12h-5V23zm-7 4v2h-8.37l-.1-2zm0 4v4h-8.05l-.21-4zM17 15.5a3.5 3.5 0 017 0v.5h-7zM13.95 18h13.1l.9 17h-14.9zM5 23h6.68l-.05 1H5zm0 3h6.53l-.48 9H5zm53 34H6V42h52zm2-20H4v-3h56z"/><path d="M17 48v-2h-6v4h7a1 1 0 011 1v6a1 1 0 01-1 1h-8a1 1 0 01-1-1v-3h2v2h6v-4h-7a1 1 0 01-1-1v-6a1 1 0 011-1h8a1 1 0 011 1v3zm11-4h-4a3.009 3.009 0 00-3 3v11h2v-6h6v6h2V47a3.009 3.009 0 00-3-3zm1 6h-6v-3a1 1 0 011-1h4a1 1 0 011 1z"/></svg>