<svg xmlns="http://www.w3.org/2000/svg" width="83.618" height="83.618"><path d="M12.713 72.139h27.678v2.723H12.713a3.182 3.182 0 01-3.178-3.178V8.143a3.181 3.181 0 013.178-3.177h10.171l-.367 1.656a1.767 1.767 0 00-.046.386v7.262c0 1.001.814 1.815 1.815 1.815h24.962a1.818 1.818 0 001.816-1.815V7.008c0-.121-.017-.247-.047-.386l-.367-1.656h10.172A3.18 3.18 0 0164 8.143v29.163l-.354-.308h-2.369V8.143a.453.453 0 00-.452-.454H53.79v6.581a4.545 4.545 0 01-4.539 4.539H24.288a4.544 4.544 0 01-4.539-4.539V7.689h-7.034a.455.455 0 00-.454.454v63.541a.453.453 0 00.452.455zM25.784 14.38h21.97c.884 0 1.599-.715 1.599-1.598V6.391c0-.883-.715-1.598-1.599-1.598h-5.991C41.763 2.146 39.514 0 36.742 0c-2.774 0-5.022 2.146-5.022 4.793h-5.935c-.883 0-1.597.715-1.597 1.598v6.391a1.595 1.595 0 001.596 1.598zm48.299 32.046v34.825a2.369 2.369 0 01-2.365 2.367H44.385a2.369 2.369 0 01-2.366-2.367V41.135a2.369 2.369 0 012.366-2.367h20.889l8.809 7.658zm-8.268-.615h4.935l-4.935-4.289v4.289zm6.543 1.725h-8.269v-7.044H44.385a.643.643 0 00-.642.643v40.116c0 .354.287.644.642.644h27.332a.643.643 0 00.641-.644V47.536zM46.623 55.73c0 .713.581 1.293 1.293 1.293h20.271a1.294 1.294 0 000-2.588H47.916a1.297 1.297 0 00-1.293 1.295zm21.563 6.325h-20.27a1.295 1.295 0 000 2.588h20.271a1.294 1.294 0 00-.001-2.588zm0 7.227h-20.27a1.295 1.295 0 000 2.587h20.271a1.294 1.294 0 00-.001-2.587z"/></svg>