<svg height="512" viewBox="0 0 64 64" width="512" xmlns="http://www.w3.org/2000/svg"><path d="M15.586 13H10a1 1 0 00-1 1v6a1 1 0 001 1h6a1 1 0 001-1v-5.586l1.707-1.707-1.414-1.414zm-2 2L11 17.586V15zM15 19h-2.586L15 16.414zm.586 4H10a1 1 0 00-1 1v6a1 1 0 001 1h6a1 1 0 001-1v-5.586l1.707-1.707-1.414-1.414zm-2 2L11 27.586V25zM15 29h-2.586L15 26.414zm.586 4H10a1 1 0 00-1 1v6a1 1 0 001 1h6a1 1 0 001-1v-5.586l1.707-1.707-1.414-1.414zm-2 2L11 37.586V35zM15 39h-2.586L15 36.414zm2.293 2.293L15.586 43H10a1 1 0 00-1 1v6a1 1 0 001 1h6a1 1 0 001-1v-5.586l1.707-1.707zM13.586 45L11 47.586V45zM15 49h-2.586L15 46.414zm6-36h18v2H21zm0 6h18v2H21zm0 4h18v2H21zm0 6h8v2h-8zm0 4h8v2h-8zm0 6h8v2h-8z"/><path d="M62 63a1 1 0 001-1V46a1 1 0 00-1-1h-9V30a1 1 0 00-1-1h-3V4a1 1 0 00-1-1H37V2a1 1 0 00-1-1H14a1 1 0 00-1 1v1H2a1 1 0 00-1 1v56a1 1 0 001 1h19v1a1 1 0 001 1zm-9-16v4h-2v-4zm-20-2V31h6v5a1 1 0 001 1h4a1 1 0 001-1v-5h6v14zm0 2v4h-2v-4zm8-16h2v4h-2zm6-26v24h-2V8a1 1 0 00-1-1h-7V5zM15 3h20v6H15zM3 59V5h10v2H6a1 1 0 00-1 1v46a1 1 0 001 1h15v4zm18-13v7H7V9h6v1a1 1 0 001 1h22a1 1 0 001-1V9h6v20H32a1 1 0 00-1 1v15h-9a1 1 0 00-1 1zm2 1h6v5a1 1 0 001 1h4a1 1 0 001-1v-5h6v14H23zm38 14H43V47h6v5a1 1 0 001 1h4a1 1 0 001-1v-5h6z"/><path d="M55 57h4v2h-4zM45 41h4v2h-4zM35 57h4v2h-4z"/></svg>