<svg data-name="Layer 1" xmlns="http://www.w3.org/2000/svg" viewBox="0 0 512 512"><path d="M171.969 381.988c-.042 0-.083-.007-.125-.007s-.083.006-.125.007a11.368 11.368 0 01-11.233-11.352 6 6 0 00-12 0 23.4 23.4 0 0017.358 22.573v5.112a6 6 0 0012 0v-5.112a23.358 23.358 0 00-6-45.932 11.358 11.358 0 1111.356-11.358 6 6 0 0012 0 23.4 23.4 0 00-17.359-22.574v-4.322a6 6 0 00-12 0v4.322a23.358 23.358 0 006 45.932 11.356 11.356 0 01.125 22.711zm306.523-215.25H367.985a23.535 23.535 0 00-23.508 23.509v1.364a23.452 23.452 0 007.832 17.5 23.449 23.449 0 00-7.832 17.5v1.365a23.451 23.451 0 007.831 17.5 23.453 23.453 0 00-7.831 17.5v1.364a23.451 23.451 0 007.832 17.5 23.451 23.451 0 00-7.832 17.5v1.36a23.449 23.449 0 007.832 17.5 23.452 23.452 0 00-7.832 17.5v1.364a23.449 23.449 0 007.832 17.5 23.449 23.449 0 00-7.832 17.5v1.365a23.452 23.452 0 007.832 17.5 23.449 23.449 0 00-7.832 17.5v1.364a23.449 23.449 0 007.832 17.5 23.452 23.452 0 00-7.832 17.5v1.364a23.535 23.535 0 0023.508 23.509h110.507A23.535 23.535 0 00502 446.156v-1.364a23.453 23.453 0 00-7.833-17.5 23.449 23.449 0 007.833-17.5v-1.364a23.453 23.453 0 00-7.832-17.5 23.456 23.456 0 007.832-17.5v-1.365a23.449 23.449 0 00-7.833-17.5 23.45 23.45 0 007.833-17.5V335.7a23.456 23.456 0 00-7.832-17.5A23.452 23.452 0 00502 300.7v-1.364a23.454 23.454 0 00-7.832-17.5 23.454 23.454 0 007.832-17.5v-1.364a23.454 23.454 0 00-7.832-17.5 23.452 23.452 0 007.832-17.5v-1.362a23.452 23.452 0 00-7.832-17.5 23.456 23.456 0 007.832-17.5v-1.364a23.535 23.535 0 00-23.508-23.508zM490 446.156a11.522 11.522 0 01-11.508 11.509H367.985a11.521 11.521 0 01-11.508-11.509v-1.364a11.515 11.515 0 0111.29-11.5H478.71a11.516 11.516 0 0111.29 11.5zm0-36.363a11.516 11.516 0 01-11.29 11.5H367.767a11.515 11.515 0 01-11.29-11.5v-1.364a11.515 11.515 0 0111.277-11.5h110.969a11.516 11.516 0 0111.277 11.5zm0-36.364a11.517 11.517 0 01-11.277 11.5H367.754a11.516 11.516 0 01-11.277-11.5v-1.365a11.514 11.514 0 0111.29-11.5H478.71a11.515 11.515 0 0111.29 11.5zm0-36.364a11.516 11.516 0 01-11.29 11.5H367.767a11.515 11.515 0 01-11.29-11.5V335.7a11.516 11.516 0 0111.277-11.5h110.969A11.517 11.517 0 01490 335.7zm0-36.363a11.515 11.515 0 01-11.277 11.5H367.754a11.515 11.515 0 01-11.277-11.5v-1.364a11.515 11.515 0 0111.277-11.5h110.969a11.516 11.516 0 0111.277 11.5zm0-36.364a11.517 11.517 0 01-11.277 11.5H367.754a11.516 11.516 0 01-11.277-11.5v-1.364a11.515 11.515 0 0111.277-11.5h110.969a11.516 11.516 0 0111.277 11.5zm0-36.363a11.516 11.516 0 01-11.277 11.5H367.754a11.515 11.515 0 01-11.277-11.5v-1.365a11.515 11.515 0 0111.283-11.5h110.957A11.515 11.515 0 01490 226.61zm0-36.364a11.516 11.516 0 01-11.283 11.5H367.76a11.516 11.516 0 01-11.283-11.5v-1.364a11.521 11.521 0 0111.508-11.509h110.507A11.522 11.522 0 01490 190.247zm-251.366-78.23a6 6 0 00-8.083-1L55.757 237.907a6 6 0 107 9.747l170.289-122.292 56.421 66.782a6 6 0 008.248.879L438.172 84.707l19.145 22.015a6 6 0 0010.513-3.52l3.549-50.9a6 6 0 00-5.568-6.4l-50.9-3.548a6 6 0 00-4.945 9.923l20.318 23.363-135.353 104.377zm189.891-58.053l30.466 2.124-2.124 30.465z"/><path d="M33.508 468.755h110.507a23.534 23.534 0 0023.508-23.508v-1.364a23.456 23.456 0 00-7.83-17.5 24.2 24.2 0 004.6-5.753 65.987 65.987 0 0015.094 0 24.074 24.074 0 005.111 6.227 23.462 23.462 0 00-8.331 17.932v1.364a23.535 23.535 0 0023.508 23.509H310.18a23.535 23.535 0 0023.508-23.509v-1.364a23.461 23.461 0 00-8.366-17.962 24.142 24.142 0 00.048-36.507 24.141 24.141 0 000-36.465 24.14 24.14 0 000-36.464 24.145 24.145 0 00.262-36.238 23.452 23.452 0 008.056-17.694V262.1a23.534 23.534 0 00-23.508-23.51H199.673a23.534 23.534 0 00-23.508 23.51v1.364a23.451 23.451 0 008.054 17.692 24.29 24.29 0 00-4.612 5.586 67.267 67.267 0 00-74.892 61.16H34.19a24.174 24.174 0 00-15.871 42.423 24.144 24.144 0 00-.473 36.048A23.453 23.453 0 0010 443.883v1.364a23.535 23.535 0 0023.508 23.508zm288.18-22.6a11.521 11.521 0 01-11.508 11.509H199.673a11.522 11.522 0 01-11.508-11.509v-1.364a11.521 11.521 0 0111.508-11.508H310.18a11.52 11.52 0 0111.508 11.508zm-12.19-25.41H200.355a12.161 12.161 0 01-7.924-2.908 67.617 67.617 0 0031.516-21.473H309.5a12.191 12.191 0 010 24.381zm0-36.465h-77.644a66.823 66.823 0 007.084-24.381H309.5a12.191 12.191 0 010 24.381zm0-36.465h-70.532a66.848 66.848 0 00-6.921-24.38H309.5a12.19 12.19 0 010 24.38zm0-36.464h-85.259a67.619 67.619 0 00-31.468-21.73 12.179 12.179 0 017.584-2.651H309.5a12.191 12.191 0 010 24.381zM188.165 262.1a11.521 11.521 0 0111.508-11.508H310.18a11.52 11.52 0 0111.508 11.508v1.364a11.521 11.521 0 01-11.508 11.509H199.673a11.522 11.522 0 01-11.508-11.509zm-16.321 36.181a55.393 55.393 0 11-55.393 55.394 55.456 55.456 0 0155.393-55.396zM34.19 359.9h70.56a66.842 66.842 0 007.084 24.381H34.19a12.191 12.191 0 010-24.381zm0 36.465h85.551a67.605 67.605 0 0031.491 21.464 12.129 12.129 0 01-5.289 2.63H31.586a12.187 12.187 0 012.6-24.094zM22 443.883a11.523 11.523 0 019.387-11.305l114.708-.006a11.52 11.52 0 019.428 11.311v1.364a11.52 11.52 0 01-11.508 11.508H33.508A11.521 11.521 0 0122 445.247z"/></svg>